<svg width="45" height="45" viewBox="0 0 45 45" fill="none" xmlns="http://www.w3.org/2000/svg">
<path d="M22.1154 3.6859C19.6952 3.6859 17.2987 4.16259 15.0627 5.08876C12.8268 6.01493 10.7951 7.37243 9.08378 9.08377C5.62759 12.54 3.68591 17.2276 3.68591 22.1154C3.68591 30.2612 8.97518 37.1723 16.2917 39.6234C17.2132 39.7708 17.508 39.1995 17.508 38.7019V35.5873C12.4031 36.6931 11.3157 33.1178 11.3157 33.1178C10.468 30.98 9.27005 30.4087 9.27005 30.4087C7.59296 29.266 9.39905 29.3029 9.39905 29.3029C11.242 29.4319 12.2188 31.2011 12.2188 31.2011C13.8221 34.0024 16.5313 33.1731 17.5817 32.7308C17.7476 31.5329 18.2268 30.722 18.7428 30.2612C14.6515 29.8005 10.3574 28.2155 10.3574 21.1939C10.3574 19.1482 11.0577 17.508 12.2556 16.1995C12.0713 15.7388 11.4263 13.8221 12.4399 11.3341C12.4399 11.3341 13.988 10.8365 17.508 13.2139C18.964 12.8085 20.5489 12.6058 22.1154 12.6058C23.6819 12.6058 25.2668 12.8085 26.7228 13.2139C30.2428 10.8365 31.7909 11.3341 31.7909 11.3341C32.8045 13.8221 32.1595 15.7388 31.9752 16.1995C33.1731 17.508 33.8734 19.1482 33.8734 21.1939C33.8734 28.234 29.5609 29.7821 25.4511 30.2428C26.1146 30.8141 26.7228 31.9383 26.7228 33.6522V38.7019C26.7228 39.1995 27.0176 39.7893 27.9575 39.6234C35.2741 37.1538 40.5449 30.2612 40.5449 22.1154C40.5449 19.6952 40.0682 17.2987 39.142 15.0627C38.2159 12.8268 36.8584 10.7951 35.147 9.08377C33.4357 7.37243 31.404 6.01493 29.1681 5.08876C26.9321 4.16259 24.5356 3.6859 22.1154 3.6859Z" fill="white"/>
</svg>
