<svg width="45" height="45" viewBox="0 0 45 45" fill="none" xmlns="http://www.w3.org/2000/svg">
<path d="M24.0099 3.6859C26.0832 3.69143 27.1355 3.70248 28.0441 3.72829L28.4016 3.74119C28.8145 3.75593 29.2218 3.77436 29.7138 3.79647C31.6747 3.88862 33.0127 4.19824 34.1867 4.65345C35.403 5.12156 36.4277 5.75553 37.4524 6.77837C38.3899 7.69935 39.1151 8.81385 39.5773 10.0441C40.0325 11.218 40.3421 12.556 40.4343 14.5188C40.4564 15.009 40.4748 15.4163 40.4895 15.8309L40.5006 16.1885C40.5283 17.0952 40.5393 18.1475 40.543 20.2208L40.5448 21.5957V24.0099C40.5493 25.3542 40.5352 26.6984 40.5024 28.0423L40.4914 28.3998C40.4767 28.8145 40.4582 29.2218 40.4361 29.712C40.344 31.6748 40.0307 33.0109 39.5773 34.1867C39.1151 35.4169 38.3899 36.5314 37.4524 37.4524C36.5314 38.3899 35.4169 39.1151 34.1867 39.5773C33.0127 40.0325 31.6747 40.3421 29.7138 40.4343L28.4016 40.4896L28.0441 40.5006C27.1355 40.5264 26.0832 40.5393 24.0099 40.543L22.6351 40.5449H20.2226C18.8778 40.5496 17.5329 40.5355 16.1884 40.5025L15.8309 40.4914C15.3934 40.4749 14.956 40.4558 14.5187 40.4343C12.5578 40.3421 11.2198 40.0325 10.044 39.5773C8.81448 39.1148 7.70062 38.3897 6.78017 37.4524C5.84201 36.5316 5.11619 35.4171 4.65341 34.1867C4.1982 33.0127 3.88859 31.6748 3.79644 29.712L3.74115 28.3998L3.73194 28.0423C3.69796 26.6985 3.6826 25.3542 3.68586 24.0099V20.2208C3.68076 18.8766 3.69428 17.5323 3.72641 16.1885L3.73931 15.8309C3.75405 15.4163 3.77248 15.009 3.7946 14.5188C3.88674 12.556 4.19636 11.2199 4.65157 10.0441C5.11543 8.81335 5.84252 7.6988 6.78202 6.77837C7.70193 5.84132 8.81514 5.11616 10.044 4.65345C11.2198 4.19824 12.556 3.88862 14.5187 3.79647C15.0089 3.77436 15.4181 3.75593 15.8309 3.74119L16.1884 3.73013C17.5323 3.69738 18.8765 3.68325 20.2208 3.68774L24.0099 3.6859ZM22.1154 12.9006C19.6714 12.9006 17.3276 13.8715 15.5995 15.5996C13.8714 17.3277 12.9006 19.6715 12.9006 22.1154C12.9006 24.5593 13.8714 26.9031 15.5995 28.6312C17.3276 30.3593 19.6714 31.3301 22.1154 31.3301C24.5593 31.3301 26.9031 30.3593 28.6312 28.6312C30.3593 26.9031 31.3301 24.5593 31.3301 22.1154C31.3301 19.6715 30.3593 17.3277 28.6312 15.5996C26.9031 13.8715 24.5593 12.9006 22.1154 12.9006ZM22.1154 16.5865C22.8414 16.5864 23.5604 16.7293 24.2312 17.007C24.9021 17.2848 25.5116 17.6919 26.0251 18.2052C26.5386 18.7186 26.9459 19.328 27.2239 19.9987C27.5019 20.6695 27.645 21.3884 27.6451 22.1145C27.6452 22.8405 27.5024 23.5595 27.2246 24.2303C26.9469 24.9012 26.5397 25.5107 26.0264 26.0242C25.5131 26.5377 24.9037 26.9451 24.2329 27.223C23.5622 27.501 22.8433 27.6441 22.1172 27.6442C20.6509 27.6442 19.2446 27.0617 18.2077 26.0249C17.1708 24.988 16.5883 23.5817 16.5883 22.1154C16.5883 20.649 17.1708 19.2428 18.2077 18.2059C19.2446 17.169 20.6509 16.5865 22.1172 16.5865M31.7927 10.1362C31.1817 10.1362 30.5957 10.3789 30.1637 10.811C29.7317 11.243 29.489 11.8289 29.489 12.4399C29.489 13.0509 29.7317 13.6368 30.1637 14.0689C30.5957 14.5009 31.1817 14.7436 31.7927 14.7436C32.4036 14.7436 32.9896 14.5009 33.4216 14.0689C33.8537 13.6368 34.0964 13.0509 34.0964 12.4399C34.0964 11.8289 33.8537 11.243 33.4216 10.811C32.9896 10.3789 32.4036 10.1362 31.7927 10.1362Z" fill="white"/>
</svg>
