<svg width="45" height="45" viewBox="0 0 45 45" fill="none" xmlns="http://www.w3.org/2000/svg">
<path d="M35.2084 5.52885C36.1859 5.52885 37.1235 5.91718 37.8147 6.60842C38.5059 7.29966 38.8943 8.23718 38.8943 9.21474V35.016C38.8943 35.9936 38.5059 36.9311 37.8147 37.6223C37.1235 38.3136 36.1859 38.7019 35.2084 38.7019H9.40709C8.42953 38.7019 7.49201 38.3136 6.80077 37.6223C6.10953 36.9311 5.72119 35.9936 5.72119 35.016V9.21474C5.72119 8.23718 6.10953 7.29966 6.80077 6.60842C7.49201 5.91718 8.42953 5.52885 9.40709 5.52885H35.2084ZM34.2869 34.0946V24.3269C34.2869 22.7335 33.6539 21.2053 32.5272 20.0786C31.4005 18.9519 29.8723 18.3189 28.2789 18.3189C26.7124 18.3189 24.8879 19.2772 24.0032 20.7147V18.6691H18.8614V34.0946H24.0032V25.0088C24.0032 23.5897 25.1459 22.4287 26.5649 22.4287C27.2492 22.4287 27.9055 22.7005 28.3894 23.1844C28.8732 23.6683 29.1451 24.3245 29.1451 25.0088V34.0946H34.2869ZM12.8718 15.7756C13.693 15.7756 14.4805 15.4494 15.0611 14.8688C15.6418 14.2882 15.968 13.5006 15.968 12.6795C15.968 10.9655 14.5858 9.5649 12.8718 9.5649C12.0458 9.5649 11.2536 9.89305 10.6695 10.4771C10.0854 11.0612 9.75725 11.8534 9.75725 12.6795C9.75725 14.3934 11.1579 15.7756 12.8718 15.7756ZM15.4335 34.0946V18.6691H10.3286V34.0946H15.4335Z" fill="white"/>
</svg>
